<?xml version="1.0" encoding="UTF-8" standalone="no"?>
<!-- Created with Inkscape (http://www.inkscape.org/) -->

<svg
   version="1.1"
   id="svg25"
   xml:space="preserve"
   width="1469.3333"
   height="1088"
   viewBox="0 0 1469.3333 1088"
   sodipodi:docname="bmi-background.svg"
   inkscape:version="1.2-dev (9ee32be, 2021-06-19)"
   inkscape:export-filename="/Users/nbennett/Desktop/bmi-background.png"
   inkscape:export-xdpi="179.56"
   inkscape:export-ydpi="179.56"
   xmlns:inkscape="http://www.inkscape.org/namespaces/inkscape"
   xmlns:sodipodi="http://sodipodi.sourceforge.net/DTD/sodipodi-0.dtd"
   xmlns="http://www.w3.org/2000/svg"
   xmlns:svg="http://www.w3.org/2000/svg"><defs
     id="defs29" /><sodipodi:namedview
     id="namedview27"
     pagecolor="#ffffff"
     bordercolor="#666666"
     borderopacity="1.0"
     inkscape:pageshadow="2"
     inkscape:pageopacity="0.0"
     inkscape:pagecheckerboard="0"
     showgrid="false"
     inkscape:zoom="0.75544469"
     inkscape:cx="490.43961"
     inkscape:cy="543.38856"
     inkscape:window-width="2560"
     inkscape:window-height="1261"
     inkscape:window-x="0"
     inkscape:window-y="25"
     inkscape:window-maximized="0"
     inkscape:current-layer="g33"
     showguides="true"
     inkscape:guide-bbox="true"><sodipodi:guide
       position="1100.0144,1111.827"
       orientation="1,0"
       id="guide498" /><sodipodi:guide
       position="1569.9363,338.77242"
       orientation="0,-1"
       id="guide124" /><sodipodi:guide
       position="191.93993,1076.0865"
       orientation="1,0"
       id="guide178" /><sodipodi:guide
       position="560.25381,671.80088"
       orientation="1,0"
       id="guide180" /><sodipodi:guide
       position="926.6463,643.9157"
       orientation="1,0"
       id="guide182" /><sodipodi:guide
       position="99.279275,999.31053"
       orientation="0,-1"
       id="guide28" /><sodipodi:guide
       position="242.47934,411.11675"
       orientation="0,-1"
       id="guide30" /></sodipodi:namedview><g
     id="g31"
     inkscape:groupmode="layer"
     inkscape:label="ink_ext_XXXXXX"
     transform="matrix(1.3333333,0,0,-1.3333333,0,1088)"><g
       id="g33"
       transform="matrix(0.1,0,0,0.1,-128.07027,-6.9495493)"><path
         d="m 5652.2379,5045.9252 c -3.2531,51.7653 0.9415,144.9497 -2.1723,166.0075 -3.1139,21.1866 6.2385,71.3115 0,86.8046 0,0 -6.3776,178.0804 -7.9934,343.2625 -1.6372,165.1819 -71.5871,434.9669 -67.1143,487.4077 2.4399,26.4832 -6.7841,87.0728 -27.1153,130.8076 -8.5391,54.3386 -14.7775,122.5409 -13.8252,157.4514 4.0662,109.6209 -4.4087,195.407 -32.7439,233.8451 -3.4884,4.7284 -7.5974,8.8349 -11.257,12.9092 -48.6665,53.9205 -86.8997,72.2658 -108.8574,76.6189 -10.4438,2.0371 -20.0637,2.7125 -29.8226,3.2487 -10.8504,0.5468 -21.7009,0.8256 -33.7605,2.7234 -1.6371,0.268 -3.3921,0.5468 -5.1577,0.8148 -10.3045,2.0372 -20.1919,5.7042 -29.8225,12.6304 -39.0465,28.1236 -128.8354,63.0879 -170.1933,75.5896 -6.2918,1.8765 -16.8962,10.1429 -26.3769,19.1279 -21.915,32.2086 -29.2127,88.3594 -20.5453,113.8668 2.7073,7.0657 21.1445,16.4368 25.0716,24.9929 4.077,8.8347 32.2731,78.656 34.9803,92.9268 3.2531,-1.3617 3.5312,-7.8913 13.4186,-6.3902 5.2968,0.6862 11.9311,22.2801 20.2027,43.4667 7.1909,18.2057 13.8359,38.9956 14.9167,48.774 3.253,29.0671 2.3006,77.0155 -23.0491,77.2942 0,0 16.8106,72.9414 26.163,110.9827 4.0769,16.5654 3.146,44.0779 -12.0597,67.5159 -2.4076,3.6991 -5.8318,7.055 -10.7112,10.8614 -2.0332,1.6297 -4.4729,3.12 -7.4583,4.6211 -8.2716,3.935 -3.7988,22.1408 -6.506,33.0128 -0.2676,1.619 -0.8133,3.1201 -1.6266,4.3423 -0.2782,0.6756 -0.8132,1.083 -1.2198,1.6299 -25.3497,34.0955 -66.836,58.0055 -110.3661,69.6816 -2.4398,1.0937 -5.008,2.0479 -7.9934,2.8628 -4.6119,0.8041 -9.0848,1.6298 -13.8252,2.1658 -1.4874,0.2682 -2.9855,0.5469 -4.4729,0.6756 -11.6637,1.9085 -23.3166,2.8628 -34.7127,2.9914 h -1.2092 c -7.7366,0.4074 -16.0081,0.5467 -24.6756,0.5467 -31.4599,0 -57.2162,-2.1764 -78.6389,-6.3795 -33.4822,-9.7891 -15.7192,-23.3738 -56.1248,-35.8648 -40.3948,-12.5018 -52.3259,-22.2801 -74.5617,-55.8291 -18.0306,-37.3551 -33.3539,-78.7953 -27.522,-102.8339 9.3523,-38.0413 26.1629,-110.9827 26.1629,-110.9827 -25.3498,-0.2787 -26.3021,-48.2271 -23.0491,-77.2942 1.0915,-9.7784 7.7259,-30.5683 14.9167,-48.774 8.2716,-21.1866 14.9167,-42.7805 20.2027,-43.4667 9.8981,-1.5011 10.1657,5.0285 13.4186,6.3902 2.7072,-14.2708 30.9141,-84.0921 34.9803,-92.9268 3.9272,-8.5561 22.3643,-17.9272 25.0823,-24.9929 8.6674,-25.5074 1.3589,-81.6582 -20.5559,-113.8668 -9.4808,-8.985 -20.0744,-17.2514 -26.377,-19.1279 -41.3472,-12.5017 -131.1467,-47.466 -170.1825,-75.5896 -9.6305,-6.9262 -19.5287,-10.5932 -29.5658,-12.491 -2.0331,-0.4074 -3.7987,-0.6862 -5.4252,-0.9542 -12.0596,-1.8978 -22.91,-2.1766 -33.6213,-2.7234 -9.8874,-0.5362 -19.518,-1.2116 -29.9511,-3.2487 -21.9684,-4.3531 -60.2016,-22.6984 -108.8681,-76.6189 -3.6596,-4.0743 -7.7686,-8.1808 -11.257,-12.9092 -28.3246,-38.4381 -36.7995,-124.2242 -32.6048,-233.8451 0.8133,-34.9105 -5.4252,-103.1128 -13.9643,-157.4514 -20.3312,-43.7348 -29.5551,-104.3244 -27.1153,-130.8076 4.4728,-52.4408 -65.4771,-322.2258 -67.1035,-487.4077 -1.6266,-165.1821 -8.0041,-343.2625 -8.0041,-343.2625 -6.2278,-15.4931 3.1246,-65.618 0,-86.8046 -3.1139,-21.0578 1.0914,-114.2422 -2.1616,-166.0075 -3.3921,-51.6153 27.9179,-60.9863 49.7472,-90.611 21.9683,-29.882 71.1805,-69.8103 86.0971,-86.2578 14.7775,-16.4368 51.5127,-68.052 65.6162,-53.9205 13.9643,13.8526 -32.9472,74.3028 -66.4294,123.613 -33.6214,49.3101 -30.5075,131.4936 -30.5075,131.4936 0,0 9.4914,5.436 22.6425,-85.3036 3.788,-28.9384 26.5697,-58.6918 42.1605,-53.2559 15.7299,5.5755 25.767,50.8113 8.539,89.1206 -17.0782,38.4382 1.6265,96.4438 -19.5179,149.6996 -21.016,53.1057 -55.4506,52.4195 -51.5234,114.3707 3.1139,48.0879 57.4837,192.8981 99.1091,301.1682 0.2675,0.9435 0.6741,1.8977 1.0807,2.9807 0.1391,0.5469 0.4066,1.2329 0.5457,1.7692 30.9141,89.1098 49.3406,265.1637 61.6784,382.2578 0.4173,7.2051 2.3113,16.3081 5.4359,27.1694 0.6741,2.4446 1.3482,5.1572 2.2899,7.8807 0,0.4074 0.2782,0.8147 0.2782,1.2222 26.7516,92.0691 52.6257,267.78 69.8858,276.6363 2.4397,-38.8241 10.1977,-74.8497 28.164,-104.4745 10.3368,-75.8038 17.7416,-168.9667 18.6726,-193.359 0.9523,-8.9529 1.359,-17.6483 1.359,-25.9364 0,-48.4952 -20.2028,-119.2707 -20.2028,-119.2707 -9.6199,-18.6132 -14.4993,-39.2636 -19.2503,-59.7746 -7.1802,-29.4746 -11.6531,-41.9764 -11.6531,-57.7269 0,-3.9456 -0.5457,-12.2336 -0.1391,-15.6217 0,-17.9379 -75.7817,-313.1232 -83.6467,-490.26 -5.8318,-63.4417 -9.224,-126.8726 -10.5722,-185.8324 -4.0662,-204.7137 41.3472,-513.8911 51.6519,-564.016 10.5722,-50.125 -3.253,-129.0491 -3.253,-140.0497 -28.6028,-152.0155 -10.7113,-305.3818 -5.1578,-357.4045 4.2054,-39.7998 13.6969,-74.303 23.4558,-101.7404 14.9167,-53.5346 30.775,-110.7144 45.5526,-166.1469 0,-0.268 0.1391,-0.4074 0.1391,-0.6754 28.1961,-105.6753 52.465,-205.2606 60.5976,-262.1725 0.535,-4.3423 1.3588,-8.2881 2.1722,-11.9442 5.9602,-49.7283 -13.6969,-165.7288 -71.0414,-227.2726 -4.0662,-5.5647 -6.506,-10.0464 -7.7366,-13.8634 -7.8543,-13.8527 -6.7735,-41.1615 18.8545,-46.5868 0,0 168.2457,-11.5475 184.5106,3.3989 0,0 14.1035,-5.9829 30.1008,-6.9264 39.8491,-6.5297 54.9048,12.5017 49.7472,32.8734 0,0 -19.1112,79.5996 -31.31,150.5143 4.3338,9.7785 5.9603,18.6026 5.9603,26.7512 0,23.6419 -14.2319,41.0221 -15.5908,60.0536 -0.2675,8.4167 -0.5458,17.5195 -0.6742,27.4265 -3.253,178.6381 66.2903,315.0209 21.2836,502.4937 -41.3472,172.5051 -36.4677,167.6157 -37.5485,289.4811 21.0053,70.2178 24.8041,115.1857 24.8041,149.0133 0,30.8363 -3.114,52.4302 0.8131,75.3858 10.5723,30.4289 10.7113,61.9514 16.5432,90.0749 31.8557,113.2878 85.2733,532.6222 88.3871,560.7458 0.1391,0.6862 0.2782,1.3617 0.2782,1.7691 0,2.8521 6.6343,5.5647 9.4915,6.1115 2.8464,-0.5468 9.4914,-3.2594 9.4914,-6.1115 0,-0.4074 0.1284,-1.0829 0.2675,-1.7691 3.1246,-28.1236 56.5314,-447.458 88.3871,-560.7458 5.8319,-28.1235 5.971,-59.646 16.5432,-90.0749 3.9271,-22.9556 0.8131,-44.5495 0.8131,-75.3858 0,-33.8276 3.7988,-78.7955 24.8149,-149.0133 -1.0915,-121.8654 3.788,-116.976 -37.5592,-289.4811 -45.0068,-187.4728 24.5365,-323.8556 21.2835,-502.4937 -0.139,-9.907 -0.4067,-19.0098 -0.6742,-27.4265 -1.3589,-19.0315 -15.5907,-36.4117 -15.5907,-60.0536 0,-8.1486 1.6264,-16.9727 5.9602,-26.7512 -12.1987,-70.9147 -31.31,-150.5143 -31.31,-150.5143 -5.1576,-20.3717 9.8981,-39.4031 49.7472,-32.8734 16.0081,0.9435 30.1008,6.9264 30.1008,6.9264 16.265,-14.9464 184.5214,-3.3989 184.5214,-3.3989 25.6172,5.4253 26.698,32.7341 18.9722,46.5868 -1.3483,3.817 -3.788,8.2987 -7.8649,13.8634 -57.3446,61.5438 -77.0017,177.5443 -71.0415,227.2726 0.8241,3.6561 1.6266,7.6019 2.1722,11.8048 8.1326,57.0513 32.4016,156.6366 60.6084,262.3119 0,0.268 0.1283,0.4074 0.1283,0.6754 14.7776,55.4325 30.6466,112.6123 45.6809,166.1469 9.6306,27.4374 19.122,61.9406 23.3274,101.7404 5.5535,52.0227 23.4557,205.389 -5.1471,357.4045 0,11.0006 -13.8359,89.9247 -3.2637,140.0497 10.3048,50.1249 55.7289,359.3023 51.6626,564.016 -1.359,58.9598 -4.7511,122.3907 -10.5828,185.4249 -7.8649,177.5443 -83.6467,472.7296 -83.6467,490.6675 0.4066,3.3881 -0.1283,11.6761 -0.1283,15.6217 0,15.7505 -4.4836,28.2523 -11.6638,57.7269 -4.7404,20.511 -9.6305,41.1614 -19.2504,59.7746 0,0 -20.2027,70.7755 -20.2027,119.2707 0,8.2881 0.4066,16.9835 1.3589,25.529 0.931,24.7997 8.3466,117.9626 18.6726,193.7664 17.977,29.6248 25.7243,65.6504 28.1641,104.4745 17.2599,-8.8563 43.134,-184.5672 69.8856,-276.6363 0,-0.4075 0.2674,-0.8148 0.2674,-1.2222 0.9525,-2.7235 1.6373,-5.4361 2.3114,-7.8807 3.1139,-10.8613 5.0186,-19.9643 5.4252,-27.1694 12.3378,-117.0941 30.775,-293.148 61.6783,-382.2578 0.1393,-0.5363 0.4067,-1.2223 0.5458,-1.7692 0.4066,-1.083 0.8132,-2.0372 1.0914,-2.9807 41.6147,-108.2701 95.9739,-253.0803 99.0984,-301.1682 3.9272,-61.9512 -30.5074,-61.265 -51.5234,-114.3707 -21.1445,-53.2558 -2.4397,-111.2614 -19.5179,-149.6996 -17.2174,-38.3093 -7.1908,-83.5451 8.5391,-89.1206 15.5907,-5.4359 38.3724,24.3175 42.1604,53.2559 13.1511,90.7396 22.6425,85.3036 22.6425,85.3036 0,0 3.1246,-82.1835 -30.4968,-131.4936 -33.4929,-49.3102 -80.4045,-109.7604 -66.4294,-123.613 14.0927,-14.1315 50.8387,37.4837 65.6055,53.9205 14.9167,16.4475 64.1395,56.3758 86.0971,86.2578 21.8186,29.6247 53.1393,38.9957 49.758,90.611"
         style="fill:#57c261;fill-opacity:1;fill-rule:nonzero;stroke:none;stroke-width:1.07112"
         id="path57"
         inkscape:export-filename="/Users/nbennett/Desktop/path37.png"
         inkscape:export-xdpi="96"
         inkscape:export-ydpi="96" /><path
         d="m 3363.443,5045.6359 c -3.1888,51.74 -8.3679,146.0439 -11.4604,167.122 -3.1888,21.1746 6.1743,71.3154 0,86.8987 0,0 -7.6723,177.1137 -16.6288,342.1429 -6.2812,115.3712 -82.919,382.0452 -105.2298,488.1331 -14.6385,69.1262 -6.827,283.1479 -6.827,283.2444 -16.9284,173.5184 -102.1801,246.3365 -138.6372,268.0156 -36.5534,21.6791 -79.8801,53.2425 -107.4662,53.2425 -65.6376,0 -127.4872,73.0219 -180.4766,89.9036 -11.5674,3.6813 -20.9624,11.945 -28.3566,22.7738 -21.8827,32.1966 -26.2164,86.9525 -17.549,112.4842 2.718,7.0726 34.0067,25.8218 37.9337,34.386 4.0556,8.822 32.2409,78.6565 34.9483,92.9196 3.2529,-1.3629 3.5204,-7.8775 13.4077,-6.3857 5.2862,0.6762 11.9205,22.2802 20.1814,43.4762 7.1801,18.2019 13.8144,38.9902 14.9059,48.778 3.253,29.0627 2.3007,77.025 -23.0277,77.2933 0,0 16.7892,72.9575 26.1415,111.0032 2.3007,9.5088 3.3814,21.5933 2.7073,35.1802 -1.7655,12.6425 -14.221,40.3531 -20.9946,45.7944 -5.8319,4.4752 -0.4066,15.7548 -0.4066,24.7162 0,2.3182 -0.4066,4.6257 -1.4874,6.3857 -2.9854,4.0783 -5.4253,7.3408 -7.9933,10.3244 -0.4066,0.5473 -0.6742,1.0839 -1.0808,1.5025 -39.1534,52.0297 -88.0553,75.5333 -181.5144,76.8962 -2.9855,0.1288 -6.0993,0.1288 -9.2132,0.1288 h -3.1139 c -31.4278,0 -57.1691,-2.1678 -78.5704,-6.3856 -33.4608,-9.777 -15.7127,-23.3641 -56.0777,-35.8671 -40.3702,-12.4923 -52.2874,-22.28 -74.5029,-55.8288 -18.0156,-37.3697 -19.7759,-78.8067 -13.9483,-102.8469 9.3416,-38.0457 26.1363,-111.0032 26.1363,-111.0032 -25.3306,-0.2683 -26.4081,-48.2306 -23.0225,-77.2933 1.0775,-9.7878 7.7205,-30.5761 14.9006,-48.778 8.2599,-21.196 14.8932,-42.8 20.1771,-43.4762 9.8895,-1.4918 10.1657,5.0228 13.4133,6.3857 2.7126,-14.2631 30.8851,-84.0976 34.9482,-92.9196 3.9293,-8.5642 35.2157,-27.3134 37.9294,-34.386 8.6686,-25.5317 4.3338,-80.2876 -17.61,-112.4842 -7.3449,-10.8288 -16.7283,-19.0925 -28.3032,-22.7738 -52.9841,-16.8817 -114.8347,-89.9036 -180.4723,-89.9036 -27.5872,0 -70.9119,-31.5634 -107.4662,-53.2425 -36.4526,-21.6791 -121.7152,-94.4972 -138.6436,-268.0156 0,-0.096 7.8168,-214.1182 -6.8216,-283.2444 -22.3129,-106.0879 -98.9561,-372.7619 -105.2298,-488.1331 -8.9618,-165.0292 -16.632,-342.1429 -16.632,-342.1429 -6.1732,-15.5833 3.1899,-65.7241 0,-86.8987 -3.0893,-21.0781 -8.2641,-115.382 -11.4528,-167.122 -3.3857,-51.5468 27.7884,-61.0341 49.6989,-90.7087 21.916,-29.7604 71.1088,-69.8238 85.956,-86.2118 14.8396,-16.3775 51.4935,-68.128 65.6333,-53.9294 13.8487,13.9734 -34.8605,75.308 -69.8216,123.6565 -41.1343,56.9451 -27.0896,131.4589 -27.0896,131.4589 0,0 16.7368,8.5965 29.8825,-82.2087 3.8832,-28.859 18.7261,-59.6389 34.961,-56.3334 8.3636,1.6956 20.3184,48.5418 2.9888,86.9094 -17.0333,38.4535 0.6933,96.6865 -20.419,149.929 -21.1177,53.1567 -49.0056,54.4553 -45.0185,116.3801 3.0892,48.1447 34.1584,194.4891 75.695,302.7772 0.3971,0.9981 0.7983,1.9963 1.1953,2.9943 0.1958,0.6009 0.2965,1.202 0.4975,1.7065 30.8767,89.2061 52.8215,241.9039 65.169,359.0782 0.4012,7.1905 2.2911,16.3882 5.3792,27.1739 0.6988,2.5006 1.3964,5.1944 2.291,7.8883 0.1006,0.397 0.2964,0.8049 0.397,1.2985 26.7931,92.6083 56.5751,256.8969 59.1583,264.989 0,0 10.7509,65.0694 28.9589,66.5933 31.0779,2.5974 85.0571,-251.3375 85.0571,-348.3245 5.5761,-45.1504 -16.5356,-149.8431 -16.5356,-194.8003 0,-51.2463 -62.2519,-300.9742 -75.8953,-468.2895 -13.7481,-167.3257 5.6768,-601.873 24.4028,-704.2583 18.7261,-102.3959 17.4303,-189.7991 5.8768,-243.943 -11.6583,-54.0367 -34.4635,-168.9143 -10.462,-360.4199 24.1053,-191.4948 130.7765,-523.4314 74.3062,-690.9611 -1.9476,-5.7632 -3.9497,-11.2044 -5.9732,-16.5062 -30.5094,-48.1876 -57.7084,-88.8196 -68.5427,-102.8682 -13.547,0 -26.5546,-16.5813 -26.5546,-34.826 -0.5147,-6.5682 1.8351,-13.383 7.942,-14.027 0.3007,0 0.5971,-0.086 0.994,-0.086 3.4863,-0.1073 7.177,-0.3111 11.0559,-0.6009 1.3964,-0.1073 2.8934,-0.2039 4.3851,-0.2039 h 0.9952 c 1.3921,0 2.6869,-0.096 3.8875,-0.1932 51.0955,-2.3073 127.3865,-4.0031 138.1374,5.892 0,0 14.0446,-5.9993 29.9831,-6.9008 30.7772,-1.2985 37.1173,18.7169 43.5923,39.0009 0,0 31.5251,113.1389 25.4353,144.4126 4.3766,9.8843 0.2964,21.2712 0.2964,29.3633 0,23.7718 -14.8429,43.4546 -16.1343,62.44 -0.3008,8.3925 -0.5019,17.5687 -0.7984,27.4638 -3.0892,178.6161 31.0779,333.8468 14.4417,497.5668 -17.1339,169.5151 -23.3029,167.6262 -24.4028,289.4905 21.1177,70.2315 24.9003,115.178 24.9003,149.049 0,30.7691 -3.1898,52.3408 0.7983,75.4152 10.5583,30.3721 18.1236,58.9412 24.0015,87.0166 31.7754,113.2678 70.4175,547.7183 73.1034,568.0881 0,0.5045 0.2033,0.998 0.2033,1.2986 0,1.2986 9.8552,4.5934 17.228,4.7008 7.3727,-0.1074 17.2386,-3.4022 17.2386,-4.7008 0,-0.3006 0.1927,-0.7941 0.1927,-1.2986 2.6857,-20.3698 41.3365,-454.8203 73.1066,-568.0881 5.8746,-28.0754 13.4506,-56.6445 24.0014,-87.0166 3.9807,-23.0744 0.8026,-44.6461 0.8026,-75.4152 0,-33.871 3.788,-78.8175 24.9003,-149.049 -1.1021,-121.8643 -7.2764,-119.9754 -24.4081,-289.4905 -16.6287,-163.72 17.5384,-318.9507 14.4458,-497.5668 -0.2996,-9.8951 -0.5029,-19.0713 -0.8025,-27.4638 -1.2948,-18.9854 -16.1259,-38.6682 -16.1259,-62.44 0,-8.0921 -4.0875,-19.479 0.2889,-29.3633 -12.2521,-70.94 19.3254,-150.5408 19.3254,-150.5408 6.4739,-20.2838 18.9294,-34.1712 49.7044,-32.8727 15.9331,0.9015 29.9723,6.9008 29.9723,6.9008 10.7648,-9.8951 87.0602,-8.1993 138.1556,-5.892 1.1878,0.096 2.4825,0.1932 3.8736,0.1932 h 1.0059 c 1.4874,0 2.9855,0.096 4.3766,0.2039 3.8843,0.2898 7.5653,0.4936 11.0537,0.6009 0.4067,0 0.6956,0.086 0.9952,0.086 6.11,0.644 8.4641,7.4588 7.9398,14.0055 0,18.2662 -13.0012,34.8475 -26.5589,34.8475 -10.8184,14.0378 -38.0301,54.6699 -68.5268,102.8682 -2.0224,5.2911 -4.0341,10.7322 -5.9709,16.5062 -56.4778,167.5297 50.1859,499.4663 74.2943,690.9611 24.0016,191.5056 1.1985,306.3832 -10.4544,360.4199 -11.5566,54.1439 -12.8515,141.5471 5.8745,243.943 18.7261,102.3853 38.1478,536.9326 24.3975,704.2583 -13.6432,167.3153 -75.8887,417.0432 -75.8887,468.2895 0,44.9572 -22.1182,149.6499 -16.5325,194.8003 0,96.987 53.9739,350.9219 85.0592,348.3245 18.2017,-1.5239 28.9452,-66.5933 28.9452,-66.5933 2.5895,-8.0921 32.3694,-172.3807 59.1636,-264.989 0.096,-0.4936 0.2996,-0.9015 0.396,-1.2985 0.8988,-2.6939 1.5944,-5.3877 2.2899,-7.8883 3.0925,-10.7857 4.9866,-19.9834 5.3825,-27.1739 12.3485,-117.1743 34.2954,-269.8721 65.1667,-359.0782 0.2033,-0.5045 0.2996,-1.1056 0.5029,-1.7065 0.3959,-0.998 0.7918,-1.9962 1.1985,-2.9943 41.529,-108.2881 72.6036,-254.6325 75.6961,-302.7772 3.9807,-61.9248 -23.9051,-63.2234 -45.0175,-116.3801 -21.123,-53.2425 -3.3921,-111.4755 -20.4275,-149.929 -17.3243,-38.3676 -5.3823,-85.2138 2.9962,-86.9094 16.2329,-3.3055 31.0639,27.4744 34.959,56.3334 13.1402,90.8052 29.8761,82.2087 29.8761,82.2087 0,0 14.0391,-74.5138 -27.094,-131.4589 -34.9589,-48.3485 -83.6574,-109.6831 -69.8109,-123.6565 14.1356,-14.1986 50.7852,37.5519 65.6269,53.9294 14.8418,16.388 64.0432,56.4514 85.9581,86.2118 21.9041,29.6746 53.0857,39.1619 49.7044,90.7087"
         style="fill:#7facd7;fill-opacity:1;fill-rule:nonzero;stroke:none;stroke-width:1.07164"
         id="path59"
         inkscape:export-filename="/Users/nbennett/Desktop/path37.png"
         inkscape:export-xdpi="96"
         inkscape:export-ydpi="96" /><path
         d="m 10358.493,5220.2487 c -1.434,8.2545 -1.831,20.8342 -1.767,34.0564 1.66,4.0898 0.525,13.5219 0.771,29.9023 0.03,0.7816 0.06,1.5953 0.1,2.3554 2.035,48.6382 28.629,337.2769 9.818,442.7649 -17.665,98.8929 -84.814,283.5318 -84.814,365.0271 0,48.2207 -66.078,367.4363 -189.06,558.8521 -3.351,4.4537 -6.799,8.6827 -10.343,12.6868 -4.721,5.2996 -9.25,9.9889 -13.961,14.2177 -17.654,18.4683 -34.013,35.0201 -48.413,45.2122 -5.696,4.0149 -10.995,7.2803 -16.102,10.2459 -22.333,17.4191 -27.194,19.5602 -33.671,26.0268 -6.466,6.4772 -19.292,22.7828 -60.372,43.1245 -0.311,0.15 -0.557,0.2248 -0.878,0.3747 -36.337,18.6501 -81.826,32.5682 -132.038,46.058 -13.811,3.9078 -34.078,8.9504 -59.923,15.7916 -0.899,0.2355 -1.788,0.471 -2.676,0.7065 -47.472,12.6547 -62.385,39.0456 -64.088,60.3294 -0.385,4.8927 -0.03,9.4642 0.739,13.5968 1.585,8.4579 5.075,14.871 8.662,17.1407 29.88,18.9928 48.584,76.7098 56.528,128.7311 3.362,-1.3597 3.801,-7.8797 14.486,-6.3808 5.706,0.6744 12.879,22.2688 21.669,43.4563 7.901,18.2006 15.074,38.9919 16.241,48.7666 2.773,24.7206 2.634,62.8881 -14.485,74.0227 4.239,12.0979 13.607,33.1462 19.014,64.9328 2.355,18.5967 0.3,36.5295 -6.574,48.3492 -7.034,11.8196 7.024,28.5213 2.773,43.5955 -9.218,25.6734 -24.442,47.5356 -36.155,61.5392 -31.326,37.343 -41.529,44.0881 -57.32,47.5248 -25.16,18.7679 -53.638,31.1335 -81.699,38.6278 -2.655,1.1134 -5.653,2.1948 -9.379,3.2119 -6.274,1.0921 -12.59,2.0341 -19.218,2.8478 -23.564,3.8543 -45.683,4.6999 -63.948,3.6186 -0.685,-0.042 -1.445,-0.031 -2.119,-0.086 -33.928,0 -61.679,-2.1733 -84.772,-6.3808 -36.155,-9.7748 -16.391,-24.9882 -60.586,-35.855 -41.711,-10.1923 -41.272,2.3125 -88.101,-53.5095 -17.858,-21.3268 -44.056,-61.2608 -44.056,-103.1006 0,-61.3892 16.969,-97.6509 23.125,-115.3161 -17.13,-11.1346 -17.269,-49.3021 -14.496,-74.0227 1.167,-9.7747 8.34,-30.566 16.252,-48.7666 8.779,-21.1875 15.952,-42.7819 21.659,-43.4563 10.684,-1.4989 11.123,5.0211 14.496,6.3808 7.933,-52.0213 30.641,-109.7383 60.532,-128.7311 3.576,-2.2697 7.077,-8.6828 8.662,-17.1406 0.76,-4.1327 1.113,-8.7042 0.728,-13.5969 -1.692,-21.2838 -16.616,-47.6747 -64.077,-60.3294 -0.888,-0.2355 -1.788,-0.471 -2.676,-0.7065 -25.866,-6.8412 -46.123,-11.8838 -59.933,-15.7916 -50.223,-13.4898 -95.703,-27.4079 -132.0398,-46.058 -0.3104,-0.1499 -0.5673,-0.2247 -0.8778,-0.3746 -41.0903,-20.3418 -53.895,-36.6474 -60.3721,-43.1246 -6.4665,-6.4666 -11.3272,-8.6077 -33.7354,-25.9518 -5.0425,-3.0406 -10.3419,-6.306 -16.0377,-10.3209 -14.3997,-10.1921 -30.7589,-26.7439 -48.2848,-45.2122 -4.8391,-4.2288 -9.3786,-8.9181 -13.7896,-13.8965 -3.8328,-4.3253 -7.2909,-8.5543 -10.6419,-13.008 -122.982,-191.4158 -189.0604,-510.6314 -189.0604,-558.8521 0,-81.4953 -67.16,-266.1342 -84.8037,-365.0271 -18.8215,-105.488 7.762,-394.1267 9.8176,-442.7649 0.031,-0.7601 0.064,-1.5738 0.085,-2.3554 0.2463,-16.3804 -0.8993,-25.8124 0.7708,-29.9023 0.064,-13.2222 -0.3318,-25.8019 -1.7666,-34.0564 -6.7983,-38.3067 21.3161,-114.3741 18.0507,-166.1279 -0.8031,-12.3334 -0.043,-22.3864 1.8306,-31.0049 -0.032,-26.316 24.4317,-79.5792 63.9268,-89.9426 0.6637,-0.696 1.3489,-1.4026 2.0234,-2.0985 12.1409,-27.7506 45.8438,-60.2116 61.0252,-60.2116 0,-28.6605 51.8608,-63.4877 70.9498,-48.7666 0.6959,0.4068 1.456,0.7172 2.0877,1.2526 25.1275,22.0119 -29.7525,77.577 -63.2949,126.8682 -33.6817,49.3127 -30.7053,109.2031 -30.7053,109.2031 0,0 6.3915,24.4528 19.5709,-66.2821 3.8006,-28.928 26.6155,-58.6804 42.2359,-53.2418 14.9564,5.2782 28.3927,46.2829 14.9671,83.1979 -4.5607,11.7981 -8.1152,45.7688 0.043,68.2732 8.1689,22.4829 9.807,90.3387 -33.885,128.4313 -2.7623,5.8993 -4.6358,9.8175 -4.6358,9.8175 -21.605,59.216 26.4015,232.2601 57.2353,329.9219 42.6534,120.209 65.6503,180.0244 104.8993,346.377 12.0336,16.7125 90.5848,147.6918 100.5309,205.4196 4.0577,23.5857 -6.6271,-47.5462 10.8454,-106.1197 -36.4654,-67.6309 -84.247,-163.1622 -114.5347,-359.6955 -15.7489,-102.5545 -20.2349,-183.3756 -14.6675,-246.6598 0.2783,-2.1734 0.4068,-3.9399 0.6851,-5.985 0.4068,-5.0211 0.9422,-10.1815 1.6274,-15.0741 5.5565,-56.7749 1.9057,-85.5745 -2.5802,-107.1582 -0.8137,-2.7194 -1.3597,-5.7063 -2.045,-8.8326 -50.5974,-172.68 -24.7847,-409.7256 32.0009,-571.0677 25.7805,-106.8904 60.8645,-154.4259 60.8645,-201.972 0,-29.0781 -18.3502,-105.5951 -21.819,-197.9252 -8.458,-103.1541 -0.4069,-159.1475 -0.4069,-159.1475 12.1087,-165.8173 96.0878,-367.1471 124.0098,-442.0582 27.247,-100.6808 55.747,-193.6426 63.562,-248.1799 0.536,-4.3468 1.349,-8.2758 2.174,-11.948 5.974,-49.7196 -13.726,-165.7104 -71.175,-227.2387 -4.079,-5.5672 -6.52,-10.0532 -7.74,-13.8646 -7.88,-13.843 -6.788,-41.1438 18.875,-46.5826 0,0 168.558,-11.5412 184.863,3.3939 0,0 14.122,-5.9634 30.149,-6.9161 39.944,-6.5308 55.019,12.4941 49.848,32.8678 0,0 -19.154,79.5899 -31.369,150.4968 4.346,9.7748 5.974,18.6074 5.974,26.7548 0,19.7315 -5.974,45.8118 -5.974,45.8118 -4.626,40.7048 23.489,222.9882 37.086,269.3889 8.575,29.3455 31.808,140.4115 36.786,229.7867 18.415,201.319 -16.423,405.2291 -26.605,448.2143 -10.181,43.0174 16.98,125.6477 28.115,261.9909 13.254,91.0026 24.817,199.9272 29.281,293.8632 0.718,6.0812 6.06,8.9075 11.413,8.8326 5.353,0.076 10.695,-2.7514 11.316,-8.6185 4.54,-94.1501 16.102,-203.0747 29.367,-294.0773 11.135,-136.3432 38.307,-218.9735 28.115,-261.9909 -10.182,-42.9852 -45.02,-246.8953 -26.605,-448.2143 4.978,-89.3752 28.211,-200.4412 36.797,-229.7867 13.576,-46.4007 41.69,-228.6841 37.076,-269.3889 0,0 -5.974,-26.0803 -5.974,-45.8118 0,-8.1474 1.627,-16.98 5.974,-26.7548 -12.216,-70.9069 -31.37,-150.4968 -31.37,-150.4968 -5.171,-20.3737 9.914,-39.3986 49.849,-32.8678 16.027,0.9527 30.137,6.9161 30.137,6.9161 16.317,-14.9351 184.874,-3.3939 184.874,-3.3939 25.663,5.4388 26.755,32.7396 19.003,46.5826 -1.359,3.8114 -3.79,8.2974 -7.869,13.8646 -57.448,61.5283 -77.148,177.5191 -71.174,227.2387 0.814,3.6722 1.628,7.6012 2.174,11.8196 7.805,54.6657 36.315,147.6275 63.54,248.2655 27.954,74.9539 111.912,276.2837 123.999,442.1225 0.03,-0.022 8.083,55.9719 -0.311,159.0724 -3.533,92.3837 -21.883,168.9007 -21.883,197.9788 0,47.5461 35.084,95.0816 60.918,201.9506 56.732,161.3635 82.545,398.4091 31.947,571.0891 -0.685,3.1263 -1.22,6.1132 -1.905,8.8326 -4.615,21.5837 -8.287,50.3833 -2.72,107.1582 0.686,4.8926 1.232,10.053 1.639,15.0741 0.267,2.0451 0.406,3.8116 0.674,5.985 5.567,63.2842 1.092,144.1053 -14.667,246.6598 -30.288,196.5333 -78.07,292.0646 -114.524,359.6955 17.472,58.5735 6.766,129.7054 10.834,106.1197 9.946,-57.7278 88.487,-188.7071 100.531,-205.4196 39.249,-166.3526 62.246,-226.168 104.9,-346.377 30.833,-97.6618 78.829,-270.7059 57.245,-329.9219 0,0 -1.884,-3.9182 -4.646,-9.8175 -43.692,-38.0926 -42.054,-105.9484 -33.885,-128.4313 8.158,-22.5044 4.613,-56.4751 0,-68.2518 -13.383,-36.9364 0.06,-77.9411 14.999,-83.2193 15.62,-5.4386 38.446,24.3138 42.247,53.2418 13.179,90.7349 19.559,66.2821 19.559,66.2821 0,0 2.988,-59.8904 -30.693,-109.2031 -33.554,-49.2912 -88.423,-104.8563 -63.306,-126.8682 0.642,-0.5354 1.392,-0.8458 2.141,-1.1884 19.046,-14.7853 70.896,20.0419 70.896,48.7024 15.203,0 48.895,32.461 61.111,60.1902 0.588,0.7173 1.284,1.4239 1.948,2.1199 39.484,10.3634 63.959,63.6266 63.959,89.9426 1.842,8.6185 2.602,18.6715 1.788,31.0049 -3.265,51.7538 24.86,127.8212 18.062,166.1279"
         style="fill:#f47030;fill-opacity:1;fill-rule:nonzero;stroke:none;stroke-width:1.07062"
         id="path63"
         inkscape:export-filename="/Users/nbennett/Desktop/path37.png"
         inkscape:export-xdpi="96"
         inkscape:export-ydpi="96" /><path
         d="m 7974.9515,5220.0792 c -3.1262,21.0592 -0.6531,69.9439 0,86.8062 3.3297,85.9819 22.5474,178.3554 20.9093,343.5421 -0.2676,29.4743 -2.8371,62.3532 -6.6486,96.7202 -6.9269,124.0212 -52.3,280.3752 -54.4734,340.555 -2.1733,60.1798 -41.7757,199.072 -50.1908,231.4048 -8.565,32.1937 -65.4152,179.1048 -86.196,262.378 -5.578,30.2987 -13.8539,54.2057 -25.5344,70.1045 -3.3939,4.7429 -7.6122,8.822 -11.2737,12.901 -20.6524,22.8258 -39.399,39.3883 -55.8331,51.0795 -16.5733,11.6806 -30.7055,18.6075 -42.1184,22.4082 -5.2888,2.5802 -10.0424,4.4859 -14.8067,6.1133 -46.7221,22.6865 -46.7221,13.7254 -85.1682,28.3929 -19.2926,7.3338 -48.7669,19.9672 -78.7873,31.5085 -29.8811,11.5521 -60.319,22.1513 -81.0998,25.406 -7.6014,2.5802 -14.6782,4.8927 -20.5024,6.6592 -6.2525,1.895 -16.9801,10.1817 -26.498,19.1535 -7.7406,11.3808 -13.5541,25.7914 -17.5797,40.748 -2.7729,11.5627 -2.002,31.7012 1.4882,55.0301 27.5579,4.3789 50.6406,76.4533 59.045,135.9586 3.2547,-1.349 3.533,-7.8691 13.4577,-6.3809 5.2996,0.6852 11.9482,22.2904 20.2348,43.4781 7.1946,18.2006 13.8539,38.9814 14.9459,48.7669 2.8479,24.7207 2.4411,62.8885 -13.1793,74.0337 4.336,22.9542 12.901,69.5478 16.1664,101.3346 0,24.3139 -7.7513,36.5405 -18.6075,47.4073 -10.7383,10.8668 6.2418,32.8789 0.1285,48.9061 -2.8479,6.7878 -5.8456,13.0403 -8.8327,19.2927 -12.1087,27.0761 -56.4112,75.0294 -128.9139,91.1851 -0.2355,0.075 -0.4282,0.1606 -0.6745,0.2355 -0.4068,0.1392 -0.8243,0.2677 -1.2312,0.4069 -2.6765,0.4818 -5.1818,0.9314 -7.6121,1.3276 -5.7493,1.017 -14.9031,1.8735 -20.9736,2.4731 -15.8559,1.6273 -33.6497,2.5802 -53.756,2.5802 -31.5085,0 -62.9206,-2.1734 -84.3867,-6.3809 -33.5533,-9.7748 -15.7596,-23.3718 -56.2399,-35.8659 -40.4803,-12.4942 -52.4392,-22.2797 -74.7082,-55.8331 -16.4341,-33.9602 -30.4378,-71.0467 -28.5321,-95.6282 -0.1392,-27.5793 11.8197,-92.9195 17.3869,-121.441 -15.7489,-11.1452 -16.0272,-49.313 -13.3078,-74.0337 1.0813,-9.7855 7.7406,-30.5663 14.9459,-48.7669 8.2759,-21.1877 14.9352,-42.7929 20.2348,-43.4781 9.914,-1.4882 10.1923,5.0319 13.447,6.3916 8.3937,-59.5053 31.4764,-131.6012 59.045,-135.9693 3.4902,-23.3289 6.5736,-43.4674 3.8007,-55.0301 -4.0362,-14.9566 -9.8497,-29.3672 -17.5796,-40.748 -9.5072,-8.9718 -20.2456,-17.2585 -26.4873,-19.1535 -5.8456,-1.7665 -12.9117,-4.079 -20.5132,-6.6592 -20.7808,-3.2547 -51.2079,-13.8539 -81.0998,-25.406 -30.0203,-11.5413 -59.4946,-24.1747 -78.7873,-31.5085 -38.4461,-14.6675 -38.4461,-5.7064 -85.1682,-28.3929 -4.7642,-1.6274 -9.5071,-3.5331 -14.8174,-6.1133 -11.4021,-3.8007 -25.5344,-10.7276 -42.1077,-22.4082 -16.4341,-11.6912 -35.1807,-28.2537 -55.8223,-51.0795 -3.6723,-4.079 -7.8798,-8.1581 -11.2844,-12.901 -11.6805,-15.8988 -19.9672,-39.8058 -25.3952,-70.1045 -20.92,-83.2732 -77.7702,-230.1843 -86.3352,-262.378 -8.4151,-32.3328 -48.0175,-171.225 -50.1909,-231.4048 -2.1734,-60.1798 -47.5464,-216.5338 -54.4734,-340.2873 -3.8007,-34.6347 -6.3809,-67.5136 -6.6593,-96.9879 -1.6273,-165.1867 17.5904,-257.5602 20.92,-343.5421 0.6531,-16.8623 3.1263,-65.747 0,-86.8062 -3.1262,-21.0592 8.9719,-114.3749 5.7065,-166.1289 -3.3939,-51.6255 27.9861,-61.0041 49.859,-90.6069 22.012,-29.8919 67.6527,-73.4984 82.588,-89.9325 14.8067,-16.4341 54.3342,-63.4452 69.4193,-50.2658 25.1275,22.012 -29.7527,77.5667 -63.3061,126.869 -33.6818,49.3237 -30.6948,109.2358 -30.6948,109.2358 0,0 6.3809,24.4424 19.5603,-66.3037 3.8007,-28.9283 26.6265,-58.681 42.2469,-53.2422 15.7489,5.5672 25.802,50.8011 8.5543,89.1081 -17.1193,38.4461 1.6273,96.4526 -19.5604,149.6947 -18.2006,46.0583 -36.9472,55.2871 -41.7008,96.3134 0.1392,31.926 -2.3982,110.2208 30.4272,205.8062 37.975,110.5741 65.4687,205.121 75.115,265.7076 7.2053,44.1419 30.2344,105.1354 38.7887,166.9532 26.0804,35.3092 106.024,148.7419 118.7965,228.3429 v -6.5201 c -1.2205,-68.2309 -3.3831,-77.813 2.3875,-106.5165 -118.5716,-187.8946 -165.3472,-525.3448 -94.2471,-603.5646 -69.1516,-245.9225 -36.8401,-705.0171 -0.3318,-781.8772 13.0402,-27.4723 23.1683,-59.848 30.9624,-91.6241 2.3233,-13.0188 4.4752,-23.179 6.3488,-29.5385 0.5139,-1.7773 0.9529,-3.6616 1.4347,-5.4923 2.5588,-12.7726 4.7428,-25.0634 6.6057,-36.519 6.0169,-53.0709 0.3212,-116.0022 -10.2566,-158.3561 -12.098,-48.3602 -19.2498,-215.8594 12.9439,-375.875 3.533,-20.92 8.4258,-39.945 13.5862,-57.0535 0.1285,-0.2784 0.2677,-0.6852 0.2677,-0.9529 2.1733,-7.6014 4.3467,-14.2607 6.6593,-20.5132 14.8067,-52.846 30.4271,-109.0859 45.0947,-163.6878 0,-0.2783 0.1391,-0.4068 0.1391,-0.6852 28.2538,-105.6813 58.9593,-204.4358 67.1068,-261.3609 0.546,-4.336 1.3597,-8.2759 2.1734,-11.9481 5.9741,-49.7198 -13.7147,-165.7327 -71.1859,-227.2722 -4.0683,-5.5566 -6.5094,-10.0425 -7.7406,-13.8539 -7.8798,-13.8539 -6.7877,-41.1548 18.8858,-46.5829 0,0 168.5806,-11.552 184.8862,3.3832 0,0 14.1215,-5.9634 30.1488,-6.9163 39.9343,-6.5308 55.0194,12.4942 49.859,32.8682 0,0 -19.1535,79.6117 -31.3907,150.5191 4.3574,9.7748 5.9848,18.6075 5.9848,26.7549 0,23.6394 -8.5543,40.0735 -9.914,59.0878 -0.2784,8.4258 -0.546,17.5261 -0.6852,27.4508 -3.2547,178.6231 66.2931,321.53 21.1984,508.9964 -41.4332,172.5205 -16.584,164.0947 -17.6654,285.9532 21.0592,70.2222 14.1323,115.1778 14.1323,149.0202 0,30.834 -3.1262,52.4285 0.8137,75.3827 10.5991,30.4271 10.7276,61.9463 16.5732,90.0716 3.2547,11.809 6.7878,27.7078 10.46,46.4545 27.0333,108.2615 45.3731,207.8403 56.9144,280.5143 11.4129,72.5348 16.1665,118.1756 16.1665,118.1756 0,0 4.7536,-45.6408 16.1664,-118.1756 11.5413,-72.674 29.8811,-172.2528 56.9144,-280.5143 3.6723,-18.7467 7.2053,-34.6455 10.46,-46.4545 5.8456,-28.1253 5.9741,-59.6445 16.584,-90.0716 3.9292,-22.9542 0.8137,-44.5487 0.8137,-75.3827 0,-33.8424 -6.9377,-78.798 14.1215,-149.0202 -1.0813,-121.8585 23.7679,-113.4327 -17.6546,-285.9532 -45.1054,-187.4664 24.4424,-330.3733 21.1877,-508.9964 -0.1392,-9.9247 -0.4069,-19.025 -0.6745,-27.4508 -1.3597,-19.0143 -9.9247,-35.4484 -9.9247,-59.0878 0,-8.1474 1.6273,-16.9801 5.9848,-26.7549 -12.2266,-70.9074 -31.3907,-150.5191 -31.3907,-150.5191 -5.1604,-20.374 9.9247,-39.399 49.859,-32.8682 16.0272,0.9529 30.1595,6.9163 30.1595,6.9163 16.2949,-14.9352 184.8754,-3.3832 184.8754,-3.3832 25.6736,5.4281 26.7656,32.729 19.0143,46.5829 -1.3597,3.8114 -3.8007,8.2973 -7.8798,13.8539 -57.4497,61.5395 -77.1492,177.5524 -71.1751,227.2722 0.8137,3.6722 1.6273,7.6121 2.1734,11.809 8.1581,57.0642 38.8529,155.8187 67.1067,261.5 0,0.2784 0.1392,0.4069 0.1392,0.6852 14.6676,54.6019 30.288,110.8418 45.0947,163.6878 2.3126,6.2525 4.4859,12.9118 6.6593,20.5132 0,0.2677 0.1392,0.6745 0.2676,0.9529 5.1605,17.1085 10.0532,36.1335 13.5863,57.0535 32.1937,160.0156 25.0419,327.5148 12.9545,375.875 -10.5884,42.3539 -16.2842,105.2852 -10.2566,158.3561 1.8522,11.4556 4.0363,23.7464 6.5951,36.519 0.4818,1.8307 0.9207,3.715 1.4346,5.4923 1.8736,6.3595 4.0256,16.5197 6.3488,29.5385 7.7835,31.7761 17.9223,64.1518 30.9625,91.6241 36.5083,76.8601 68.8198,535.9547 -0.3319,781.8772 71.1002,78.2198 24.3246,415.67 -94.2471,603.5646 5.76,28.7035 3.608,38.2856 2.3875,106.5165 v 6.5201 c 12.7726,-79.601 92.7161,-193.0337 118.7965,-228.3429 8.5543,-61.8178 31.5835,-122.8113 38.7888,-166.9532 9.6356,-60.5866 37.1399,-155.1335 75.115,-265.7076 32.8253,-95.5854 30.288,-173.8802 30.4271,-205.8062 -4.7428,-41.0263 -23.4895,-50.2551 -41.7008,-96.3134 -21.1877,-53.2421 -2.441,-111.2486 -19.571,-149.6947 -17.2371,-38.307 -7.1839,-83.5409 8.565,-89.1081 15.6204,-5.4388 38.4461,24.3139 42.2575,53.2422 13.1687,90.7461 19.5604,66.3037 19.5604,66.3037 0,0 2.9763,-59.9121 -30.7056,-109.2358 -33.5533,-49.3023 -88.4336,-104.857 -63.306,-126.869 15.0851,-13.1794 54.6126,33.8317 69.4193,50.2658 14.9352,16.4341 60.5867,60.0406 82.5987,89.9325 21.8622,29.6028 53.2422,38.9814 49.8483,90.6069 -3.2654,51.754 8.8219,145.0697 5.7064,166.1289"
         style="fill:#e2e52c;fill-opacity:1;fill-rule:nonzero;stroke:none;stroke-width:10.7062"
         id="path82" /></g></g></svg>
