<?xml version="1.0" encoding="UTF-8" standalone="no"?>
<!-- Created with Inkscape (http://www.inkscape.org/) -->

<svg
   version="1.1"
   id="svg25"
   xml:space="preserve"
   width="1469.3333"
   height="1088"
   viewBox="0 0 1469.3333 1088"
   sodipodi:docname="bmi-background.svg"
   inkscape:version="1.2-dev (9ee32be, 2021-06-19)"
   inkscape:export-filename="/Users/nbennett/Desktop/bmi-background.png"
   inkscape:export-xdpi="179.56"
   inkscape:export-ydpi="179.56"
   xmlns:inkscape="http://www.inkscape.org/namespaces/inkscape"
   xmlns:sodipodi="http://sodipodi.sourceforge.net/DTD/sodipodi-0.dtd"
   xmlns="http://www.w3.org/2000/svg"
   xmlns:svg="http://www.w3.org/2000/svg"><defs
     id="defs29" /><sodipodi:namedview
     id="namedview27"
     pagecolor="#ffffff"
     bordercolor="#666666"
     borderopacity="1.0"
     inkscape:pageshadow="2"
     inkscape:pageopacity="0.0"
     inkscape:pagecheckerboard="0"
     showgrid="false"
     inkscape:zoom="0.75544469"
     inkscape:cx="490.43961"
     inkscape:cy="543.38856"
     inkscape:window-width="2560"
     inkscape:window-height="1289"
     inkscape:window-x="0"
     inkscape:window-y="25"
     inkscape:window-maximized="0"
     inkscape:current-layer="g33"
     showguides="true"
     inkscape:guide-bbox="true"><sodipodi:guide
       position="1100.0144,1111.827"
       orientation="1,0"
       id="guide498" /><sodipodi:guide
       position="1569.9363,338.77242"
       orientation="0,-1"
       id="guide124" /><sodipodi:guide
       position="190.54141,672.63976"
       orientation="1,0"
       id="guide178" /><sodipodi:guide
       position="560.25381,671.80088"
       orientation="1,0"
       id="guide180" /><sodipodi:guide
       position="926.6463,643.9157"
       orientation="1,0"
       id="guide182" /></sodipodi:namedview><g
     id="g31"
     inkscape:groupmode="layer"
     inkscape:label="ink_ext_XXXXXX"
     transform="matrix(1.3333333,0,0,-1.3333333,0,1088)"><g
       id="g33"
       transform="matrix(0.1,0,0,0.1,-128.07027,-6.9495493)"><path
         d="m 6184.7379,5050.925 c -3.2531,51.6625 0.9415,144.6617 -2.1723,165.6777 -3.1139,21.1444 6.2385,71.1697 0,86.6321 0,0 -6.3776,177.7265 -7.9934,342.5803 -1.6372,164.8537 -71.5871,434.1026 -67.1143,486.4392 2.4399,26.4306 -6.7841,86.8998 -27.1153,130.5476 -8.5391,54.2307 -14.7775,122.2974 -13.8252,157.1386 4.0662,109.403 -4.4087,195.0187 -32.7439,233.3804 -3.4884,4.719 -7.5974,8.8173 -11.257,12.8835 -48.6665,53.8134 -86.8997,72.1222 -108.8574,76.4667 -10.4438,2.033 -20.0637,2.7071 -29.8226,3.2422 -10.8504,0.5457 -21.7009,0.824 -33.7605,2.718 -1.6371,0.2675 -3.3921,0.5457 -5.1577,0.8132 -10.3045,2.0331 -20.1919,5.6928 -29.8225,12.6053 -39.0465,28.0677 -128.8354,62.9625 -170.1933,75.4394 -6.2918,1.8727 -16.8962,10.1227 -26.3769,19.0899 -21.915,32.1446 -29.2127,88.1838 -20.5453,113.6405 2.7073,7.0517 21.1445,16.4041 25.0716,24.9432 4.077,8.8172 32.2731,78.4997 34.9803,92.7422 3.2531,-1.359 3.5312,-7.8756 13.4186,-6.3775 5.2968,0.6848 11.9311,22.2358 20.2027,43.3803 7.1909,18.1695 13.8359,38.9181 14.9167,48.6771 3.253,29.0093 2.3006,76.8624 -23.0491,77.1406 0,0 16.8106,72.7964 26.163,110.7621 4.0769,16.5325 3.146,43.9903 -12.0597,67.3818 -2.4076,3.6917 -5.8318,7.041 -10.7112,10.8398 -2.0332,1.6264 -4.4729,3.1138 -7.4583,4.6119 -8.2716,3.9272 -3.7988,22.0968 -6.506,32.9472 -0.2676,1.6158 -0.8133,3.1139 -1.6266,4.3337 -0.2782,0.6742 -0.8132,1.0808 -1.2198,1.6266 -25.3497,34.0278 -66.836,57.8903 -110.3661,69.5432 -2.4398,1.0915 -5.008,2.0438 -7.9934,2.8571 -4.6119,0.8025 -9.0848,1.6265 -13.8252,2.1615 -1.4874,0.2676 -2.9855,0.5458 -4.4729,0.6742 -11.6637,1.9047 -23.3166,2.8571 -34.7127,2.9855 h -1.2092 c -7.7366,0.4066 -16.0081,0.5456 -24.6756,0.5456 -31.4599,0 -57.2162,-2.1721 -78.6389,-6.3668 -33.4822,-9.7697 -15.7192,-23.3274 -56.1248,-35.7936 -40.3948,-12.4769 -52.3259,-22.2358 -74.5617,-55.7181 -18.0306,-37.2809 -33.3539,-78.6387 -27.522,-102.6296 9.3523,-37.9657 26.1629,-110.7621 26.1629,-110.7621 -25.3498,-0.2782 -26.3021,-48.1313 -23.0491,-77.1406 1.0915,-9.759 7.7259,-30.5076 14.9167,-48.6771 8.2716,-21.1445 14.9167,-42.6955 20.2027,-43.3803 9.8981,-1.4981 10.1657,5.0185 13.4186,6.3775 2.7072,-14.2425 30.9141,-83.925 34.9803,-92.7422 3.9272,-8.5391 22.3643,-17.8915 25.0823,-24.9432 8.6674,-25.4567 1.3589,-81.4959 -20.5559,-113.6405 -9.4808,-8.9672 -20.0744,-17.2172 -26.377,-19.0899 -41.3472,-12.4769 -131.1467,-47.3717 -170.1825,-75.4394 -9.6305,-6.9125 -19.5287,-10.5722 -29.5658,-12.4662 -2.0331,-0.4066 -3.7987,-0.6848 -5.4252,-0.9523 -12.0596,-1.894 -22.91,-2.1723 -33.6213,-2.718 -9.8874,-0.5351 -19.518,-1.2092 -29.9511,-3.2422 -21.9684,-4.3445 -60.2016,-22.6533 -108.8681,-76.4667 -3.6596,-4.0662 -7.7686,-8.1645 -11.257,-12.8835 -28.3246,-38.3617 -36.7995,-123.9774 -32.6048,-233.3804 0.8133,-34.8412 -5.4252,-102.9079 -13.9643,-157.1386 -20.3312,-43.6478 -29.5551,-104.117 -27.1153,-130.5476 4.4728,-52.3366 -65.4771,-321.5855 -67.1035,-486.4392 -1.6266,-164.8538 -8.0041,-342.5803 -8.0041,-342.5803 -6.2278,-15.4624 3.1246,-65.4877 0,-86.6321 -3.1139,-21.016 1.0914,-114.0152 -2.1616,-165.6777 -3.3921,-51.5127 27.9179,-60.8651 49.7472,-90.4309 21.9683,-29.8226 71.1805,-69.6716 86.0971,-86.0864 14.7775,-16.4041 51.5127,-67.9168 65.6162,-53.8134 13.9643,13.8251 -32.9472,74.1552 -66.4294,123.3674 -33.6214,49.2121 -30.5075,131.2323 -30.5075,131.2323 0,0 9.4914,5.4252 22.6425,-85.1341 3.788,-28.8809 26.5697,-58.5751 42.1605,-53.15 15.7299,5.5644 25.767,50.7103 8.539,88.9435 -17.0782,38.3618 1.6265,96.2521 -19.5179,149.4021 -21.016,53.0001 -55.4506,52.3153 -51.5234,114.1434 3.1139,47.9923 57.4837,192.5148 99.1091,300.5697 0.2675,0.9417 0.6741,1.894 1.0807,2.9748 0.1391,0.5458 0.4066,1.2305 0.5457,1.7657 30.9141,88.9327 49.3406,264.6368 61.6784,381.4982 0.4173,7.1908 2.3113,16.2757 5.4359,27.1154 0.6741,2.4397 1.3482,5.147 2.2899,7.865 0,0.4066 0.2782,0.8131 0.2782,1.2198 26.7516,91.8862 52.6257,267.2479 69.8858,276.0866 2.4397,-38.747 10.1977,-74.701 28.164,-104.2669 10.3368,-75.6532 17.7416,-168.6309 18.6726,-192.9748 0.9523,-8.9351 1.359,-17.6132 1.359,-25.8848 0,-48.3989 -20.2028,-119.0337 -20.2028,-119.0337 -9.6199,-18.5762 -14.4993,-39.1856 -19.2503,-59.6558 -7.1802,-29.4161 -11.6531,-41.893 -11.6531,-57.6122 0,-3.9378 -0.5457,-12.2093 -0.1391,-15.5907 0,-17.9022 -75.7817,-312.501 -83.6467,-489.2858 -5.8318,-63.3156 -9.224,-126.6204 -10.5722,-185.4631 -4.0662,-204.3069 41.3472,-512.8699 51.6519,-562.8952 10.5722,-50.0254 -3.253,-128.7926 -3.253,-139.7714 -28.6028,-151.7134 -10.7113,-304.7749 -5.1578,-356.6943 4.2054,-39.7207 13.6969,-74.1553 23.4558,-101.5382 14.9167,-53.4282 30.775,-110.4944 45.5526,-165.8167 0,-0.2675 0.1391,-0.4066 0.1391,-0.6741 28.1961,-105.4653 52.465,-204.8527 60.5976,-261.6515 0.535,-4.3337 1.3588,-8.2716 2.1722,-11.9205 5.9602,-49.6295 -13.6969,-165.3994 -71.0414,-226.8209 -4.0662,-5.5537 -6.506,-10.0265 -7.7366,-13.8359 -7.8543,-13.8252 -6.7735,-41.0797 18.8545,-46.4942 0,0 168.2457,-11.5246 184.5106,3.3921 0,0 14.1035,-5.971 30.1008,-6.9126 39.8491,-6.5167 54.9048,12.4768 49.7472,32.8081 0,0 -19.1112,79.4414 -31.31,150.2152 4.3338,9.759 5.9603,18.5656 5.9603,26.698 0,23.5949 -14.2319,40.9406 -15.5908,59.9343 -0.2675,8.3999 -0.5458,17.4847 -0.6742,27.372 -3.253,178.2831 66.2903,314.3949 21.2836,501.4951 -41.3472,172.1623 -36.4677,167.2827 -37.5485,288.9059 21.0053,70.0783 24.8041,114.9568 24.8041,148.7172 0,30.775 -3.114,52.326 0.8131,75.236 10.5723,30.3684 10.7113,61.8283 16.5432,89.8959 31.8557,113.0627 85.2733,531.5638 88.3871,559.6315 0.1391,0.6848 0.2782,1.359 0.2782,1.7656 0,2.8464 6.6343,5.5536 9.4915,6.0993 2.8464,-0.5457 9.4914,-3.2529 9.4914,-6.0993 0,-0.4066 0.1284,-1.0808 0.2675,-1.7656 3.1246,-28.0677 56.5314,-446.5688 88.3871,-559.6315 5.8319,-28.0676 5.971,-59.5275 16.5432,-89.8959 3.9271,-22.91 0.8131,-44.461 0.8131,-75.236 0,-33.7604 3.7988,-78.6389 24.8149,-148.7172 -1.0915,-121.6232 3.788,-116.7436 -37.5592,-288.9059 -45.0068,-187.1002 24.5365,-323.212 21.2835,-501.4951 -0.139,-9.8873 -0.4067,-18.9721 -0.6742,-27.372 -1.3589,-18.9937 -15.5907,-36.3394 -15.5907,-59.9343 0,-8.1324 1.6264,-16.939 5.9602,-26.698 -12.1987,-70.7738 -31.31,-150.2152 -31.31,-150.2152 -5.1576,-20.3313 9.8981,-39.3248 49.7472,-32.8081 16.0081,0.9416 30.1008,6.9126 30.1008,6.9126 16.265,-14.9167 184.5214,-3.3921 184.5214,-3.3921 25.6172,5.4145 26.698,32.669 18.9722,46.4942 -1.3483,3.8094 -3.788,8.2822 -7.8649,13.8359 -57.3446,61.4215 -77.0017,177.1914 -71.0415,226.8209 0.8241,3.6489 1.6266,7.5868 2.1722,11.7814 8.1326,56.9379 32.4016,156.3253 60.6084,261.7906 0,0.2675 0.1283,0.4066 0.1283,0.6741 14.7776,55.3223 30.6466,112.3885 45.6809,165.8167 9.6306,27.3829 19.122,61.8175 23.3274,101.5382 5.5535,51.9194 23.4557,204.9809 -5.1471,356.6943 0,10.9788 -13.8359,89.746 -3.2637,139.7714 10.3048,50.0253 55.7289,358.5883 51.6626,562.8952 -1.359,58.8427 -4.7511,122.1475 -10.5828,185.0565 -7.8649,177.1914 -83.6467,471.7902 -83.6467,489.6924 0.4066,3.3814 -0.1283,11.6529 -0.1283,15.5907 0,15.7192 -4.4836,28.1961 -11.6638,57.6122 -4.7404,20.4702 -9.6305,41.0796 -19.2504,59.6558 0,0 -20.2027,70.6348 -20.2027,119.0337 0,8.2716 0.4066,16.9497 1.3589,25.4782 0.931,24.7505 8.3466,117.7282 18.6726,193.3814 17.977,29.5659 25.7243,65.5199 28.1641,104.2669 17.2599,-8.8387 43.134,-184.2004 69.8856,-276.0866 0,-0.4067 0.2674,-0.8132 0.2674,-1.2198 0.9525,-2.718 1.6373,-5.4253 2.3114,-7.865 3.1139,-10.8397 5.0186,-19.9246 5.4252,-27.1154 12.3378,-116.8614 30.775,-292.5655 61.6783,-381.4982 0.1393,-0.5352 0.4067,-1.2199 0.5458,-1.7657 0.4066,-1.0808 0.8132,-2.0331 1.0914,-2.9748 41.6147,-108.0549 95.9739,-252.5774 99.0984,-300.5697 3.9272,-61.8281 -30.5074,-61.1433 -51.5234,-114.1434 -21.1445,-53.15 -2.4397,-111.0403 -19.5179,-149.4021 -17.2174,-38.2332 -7.1908,-83.3791 8.5391,-88.9435 15.5907,-5.4251 38.3724,24.2691 42.1604,53.15 13.1511,90.5593 22.6425,85.1341 22.6425,85.1341 0,0 3.1246,-82.0202 -30.4968,-131.2323 -33.4929,-49.2122 -80.4045,-109.5423 -66.4294,-123.3674 14.0927,-14.1034 50.8387,37.4093 65.6055,53.8134 14.9167,16.4148 64.1395,56.2638 86.0971,86.0864 21.8186,29.5658 53.1393,38.9182 49.758,90.4309"
         style="fill:#57c261;fill-opacity:1;fill-rule:nonzero;stroke:none;stroke-width:1.07006"
         id="path57"
         inkscape:export-filename="/Users/nbennett/Desktop/path37.png"
         inkscape:export-xdpi="96"
         inkscape:export-ydpi="96" /><path
         d="m 3438.443,5053.0437 c -3.1888,51.5877 -8.3679,145.614 -11.4604,166.63 -3.1888,21.1123 6.1743,71.1055 0,86.6429 0,0 -7.6723,176.5923 -16.6288,341.1357 -6.2812,115.0316 -82.919,380.9205 -105.2298,486.6961 -14.6385,68.9227 -6.827,282.3144 -6.827,282.4106 -16.9284,173.0076 -102.1801,245.6113 -138.6372,267.2266 -36.5534,21.6152 -79.8801,53.0857 -107.4662,53.0857 -65.6376,0 -127.4872,72.807 -180.4766,89.639 -11.5674,3.6704 -20.9624,11.9098 -28.3566,22.7067 -21.8827,32.1018 -26.2164,86.6965 -17.549,112.1531 2.718,7.0518 34.0067,25.7458 37.9337,34.2848 4.0556,8.796 32.2409,78.4249 34.9483,92.646 3.2529,-1.3589 3.5204,-7.8543 13.4077,-6.3669 5.2862,0.6742 11.9205,22.2146 20.1814,43.3482 7.1801,18.1483 13.8144,38.8754 14.9059,48.6344 3.253,28.9772 2.3007,76.7983 -23.0277,77.0658 0,0 16.7892,72.7427 26.1415,110.6764 2.3007,9.4808 3.3814,21.5297 2.7073,35.0766 -1.7655,12.6053 -14.221,40.2343 -20.9946,45.6596 -5.8319,4.4621 -0.4066,15.7084 -0.4066,24.6435 0,2.3113 -0.4066,4.612 -1.4874,6.3669 -2.9854,4.0663 -5.4253,7.3192 -7.9933,10.294 -0.4066,0.5457 -0.6742,1.0807 -1.0808,1.4981 -39.1534,51.8765 -88.0553,75.3109 -181.5144,76.6698 -2.9855,0.1284 -6.0993,0.1284 -9.2132,0.1284 h -3.1139 c -31.4278,0 -57.1691,-2.1614 -78.5704,-6.3668 -33.4608,-9.7482 -15.7127,-23.2953 -56.0777,-35.7615 -40.3702,-12.4555 -52.2874,-22.2144 -74.5029,-55.6645 -18.0156,-37.2596 -19.7759,-78.5747 -13.9483,-102.5441 9.3416,-37.9337 26.1363,-110.6764 26.1363,-110.6764 -25.3306,-0.2675 -26.4081,-48.0886 -23.0225,-77.0658 1.0775,-9.759 7.7205,-30.4861 14.9006,-48.6344 8.2599,-21.1336 14.8932,-42.674 20.1771,-43.3482 9.8895,-1.4874 10.1657,5.008 13.4133,6.3669 2.7126,-14.2211 30.8851,-83.85 34.9482,-92.646 3.9293,-8.539 35.2157,-27.233 37.9294,-34.2848 8.6686,-25.4566 4.3338,-80.0513 -17.61,-112.1531 -7.3449,-10.7969 -16.7283,-19.0363 -28.3032,-22.7067 -52.9841,-16.832 -114.8347,-89.639 -180.4723,-89.639 -27.5872,0 -70.9119,-31.4705 -107.4662,-53.0857 -36.4526,-21.6153 -121.7152,-94.219 -138.6436,-267.2266 0,-0.096 7.8168,-213.4879 -6.8216,-282.4106 -22.3129,-105.7756 -98.9561,-371.6645 -105.2298,-486.6961 -8.9618,-164.5434 -16.632,-341.1357 -16.632,-341.1357 -6.1732,-15.5374 3.1899,-65.5306 0,-86.6429 -3.0893,-21.016 -8.2641,-115.0423 -11.4528,-166.63 -3.3857,-51.395 27.7884,-60.8544 49.6989,-90.4416 21.916,-29.6728 71.1088,-69.6183 85.956,-85.958 14.8396,-16.3293 51.4935,-67.9275 65.6333,-53.7707 13.8487,13.9323 -34.8605,75.0863 -69.8216,123.2925 -41.1343,56.7775 -27.0896,131.0719 -27.0896,131.0719 0,0 16.7368,8.5712 29.8825,-81.9667 3.8832,-28.774 18.7261,-59.4633 34.961,-56.1676 8.3636,1.6907 20.3184,48.3989 2.9888,86.6536 -17.0333,38.3403 0.6933,96.4019 -20.419,149.4876 -21.1177,53.0002 -49.0056,54.295 -45.0185,116.0375 3.0892,48.003 34.1584,193.9166 75.695,301.8859 0.3971,0.9951 0.7983,1.9904 1.1953,2.9855 0.1958,0.5991 0.2965,1.1984 0.4975,1.7014 30.8767,88.9435 52.8215,241.1918 65.169,358.0212 0.4012,7.1693 2.2911,16.3399 5.3792,27.0939 0.6988,2.4932 1.3964,5.1791 2.291,7.865 0.1006,0.3959 0.2964,0.8026 0.397,1.2947 26.7931,92.3357 56.5751,256.1407 59.1583,264.2089 0,0 10.7509,64.8779 28.9589,66.3973 31.0779,2.5897 85.0571,-250.5976 85.0571,-347.2991 5.5761,-45.0175 -16.5356,-149.402 -16.5356,-194.2268 0,-51.0955 -62.2519,-300.0882 -75.8953,-466.9109 -13.7481,-166.8332 5.6768,-600.1012 24.4028,-702.1851 18.7261,-102.0945 17.4303,-189.2404 5.8768,-243.2249 -11.6583,-53.8776 -34.4635,-168.417 -10.462,-359.3588 24.1053,-190.9311 130.7765,-521.8905 74.3062,-688.927 -1.9476,-5.7463 -3.9497,-11.1714 -5.9732,-16.4576 -30.5094,-48.0458 -57.7084,-88.5582 -68.5427,-102.5654 -13.547,0 -26.5546,-16.5325 -26.5546,-34.7235 -0.5147,-6.5488 1.8351,-13.3436 7.942,-13.9857 0.3007,0 0.5971,-0.086 0.994,-0.086 3.4863,-0.107 7.177,-0.3102 11.0559,-0.5992 1.3964,-0.107 2.8934,-0.2033 4.3851,-0.2033 h 0.9952 c 1.3921,0 2.6869,-0.096 3.8875,-0.1926 51.0955,-2.3005 127.3865,-3.9913 138.1374,5.8747 0,0 14.0446,-5.9817 29.9831,-6.8805 30.7772,-1.2947 37.1173,18.6618 43.5923,38.8861 0,0 31.5251,112.8058 25.4353,143.9874 4.3766,9.8552 0.2964,21.2086 0.2964,29.2769 0,23.7018 -14.8429,43.3267 -16.1343,62.2562 -0.3008,8.3678 -0.5019,17.5169 -0.7984,27.3829 -3.0892,178.0903 31.0779,332.864 14.4417,496.102 -17.1339,169.0161 -23.3029,167.1328 -24.4028,288.6383 21.1177,70.0248 24.9003,114.839 24.9003,148.6102 0,30.6786 -3.1898,52.1868 0.7983,75.1932 10.5583,30.2827 18.1236,58.7677 24.0015,86.7605 31.7754,112.9343 70.4175,546.1059 73.1034,566.4157 0,0.503 0.2033,0.9951 0.2033,1.2948 0,1.2947 9.8552,4.5798 17.228,4.6869 7.3727,-0.1071 17.2386,-3.3922 17.2386,-4.6869 0,-0.2997 0.1927,-0.7918 0.1927,-1.2948 2.6857,-20.3098 41.3365,-453.4814 73.1066,-566.4157 5.8746,-27.9928 13.4506,-56.4778 24.0014,-86.7605 3.9807,-23.0064 0.8026,-44.5146 0.8026,-75.1932 0,-33.7712 3.788,-78.5854 24.9003,-148.6102 -1.1021,-121.5055 -7.2764,-119.6222 -24.4081,-288.6383 -16.6287,-163.238 17.5384,-318.0117 14.4458,-496.102 -0.2996,-9.866 -0.5029,-19.0151 -0.8025,-27.3829 -1.2948,-18.9295 -16.1259,-38.5544 -16.1259,-62.2562 0,-8.0683 -4.0875,-19.4217 0.2889,-29.2769 -12.2521,-70.7311 19.3254,-150.0976 19.3254,-150.0976 6.4739,-20.2241 18.9294,-34.0706 49.7044,-32.7759 15.9331,0.8988 29.9723,6.8805 29.9723,6.8805 10.7648,-9.866 87.0602,-8.1752 138.1556,-5.8747 1.1878,0.096 2.4825,0.1926 3.8736,0.1926 h 1.0059 c 1.4874,0 2.9855,0.096 4.3766,0.2033 3.8843,0.289 7.5653,0.4922 11.0537,0.5992 0.4067,0 0.6956,0.086 0.9952,0.086 6.11,0.6421 8.4641,7.4369 7.9398,13.9643 0,18.2124 -13.0012,34.7449 -26.5589,34.7449 -10.8184,13.9965 -38.0301,54.509 -68.5268,102.5654 -2.0224,5.2755 -4.0341,10.7006 -5.9709,16.4576 -56.4778,167.0365 50.1859,497.9959 74.2943,688.927 24.0016,190.9418 1.1985,305.4812 -10.4544,359.3588 -11.5566,53.9845 -12.8515,141.1304 5.8745,243.2249 18.7261,102.0839 38.1478,535.3519 24.3975,702.1851 -13.6432,166.8227 -75.8887,415.8154 -75.8887,466.9109 0,44.8248 -22.1182,149.2093 -16.5325,194.2268 0,96.7015 53.9739,349.8888 85.0592,347.2991 18.2017,-1.5194 28.9452,-66.3973 28.9452,-66.3973 2.5895,-8.0682 32.3694,-171.8732 59.1636,-264.2089 0.096,-0.4921 0.2996,-0.8988 0.396,-1.2947 0.8988,-2.6859 1.5944,-5.3718 2.2899,-7.865 3.0925,-10.754 4.9866,-19.9246 5.3825,-27.0939 12.3485,-116.8294 34.2954,-269.0777 65.1667,-358.0212 0.2033,-0.503 0.2996,-1.1023 0.5029,-1.7014 0.3959,-0.9951 0.7918,-1.9904 1.1985,-2.9855 41.529,-107.9693 72.6036,-253.8829 75.6961,-301.8859 3.9807,-61.7425 -23.9051,-63.0373 -45.0175,-116.0375 -21.123,-53.0857 -3.3921,-111.1473 -20.4275,-149.4876 -17.3243,-38.2547 -5.3823,-84.9629 2.9962,-86.6536 16.2329,-3.2957 31.0639,27.3936 34.959,56.1676 13.1402,90.5379 29.8761,81.9667 29.8761,81.9667 0,0 14.0391,-74.2944 -27.094,-131.0719 -34.9589,-48.2062 -83.6574,-109.3602 -69.8109,-123.2925 14.1356,-14.1568 50.7852,37.4414 65.6269,53.7707 14.8418,16.3397 64.0432,56.2852 85.9581,85.958 21.9041,29.5872 53.0857,39.0466 49.7044,90.4416"
         style="fill:#7facd7;fill-opacity:1;fill-rule:nonzero;stroke:none;stroke-width:1.07006"
         id="path59"
         inkscape:export-filename="/Users/nbennett/Desktop/path37.png"
         inkscape:export-xdpi="96"
         inkscape:export-ydpi="96" /><path
         d="m 9097.6,5221.466 c -1.4338,8.2502 -1.8305,20.8234 -1.7663,34.0387 1.6592,4.0876 0.5242,13.5148 0.771,29.8868 0.028,0.7812 0.065,1.5944 0.096,2.3541 2.0335,48.613 28.6137,337.1016 9.8125,442.5348 -17.6558,98.8415 -84.7703,283.3844 -84.7703,364.8374 0,48.1956 -66.0437,367.2452 -188.9619,558.5615 -3.3491,4.4514 -6.795,8.6782 -10.3368,12.6802 -4.7187,5.2968 -9.2453,9.9838 -13.9536,14.2104 -17.6454,18.4586 -33.9958,35.0018 -48.3881,45.1887 -5.6927,4.0128 -10.9895,7.2765 -16.0937,10.2405 -22.3215,17.41 -27.1796,19.55 -33.6535,26.0132 -6.4632,6.4739 -19.2825,22.771 -60.3407,43.1021 -0.3104,0.1499 -0.5566,0.2247 -0.8774,0.3745 -36.318,18.6405 -81.785,32.5513 -131.9708,46.0341 -13.8038,3.9057 -34.0601,8.9457 -59.8913,15.7834 -0.8989,0.2354 -1.7871,0.4708 -2.6752,0.7062 -47.4465,12.6481 -62.3525,39.0252 -64.0539,60.298 -0.3852,4.8901 -0.032,9.4593 0.7383,13.5897 1.5837,8.4535 5.0722,14.8632 8.6569,17.1317 29.8654,18.983 48.5594,76.67 56.4992,128.6643 3.3601,-1.359 3.7987,-7.8756 14.4779,-6.3775 5.7034,0.674 12.8728,22.2572 21.6581,43.4337 7.8971,18.1911 15.0664,38.9717 16.2329,48.7413 2.7714,24.7077 2.6323,62.8553 -14.478,73.9841 4.2375,12.0917 13.6005,33.129 19.0043,64.8991 2.3541,18.587 0.2996,36.5106 -6.5703,48.3241 -7.0302,11.8134 7.0197,28.5064 2.7716,43.5729 -9.2133,25.66 -24.4296,47.5108 -36.1361,61.5071 -31.3099,37.3237 -41.5075,44.0652 -57.291,47.5001 -25.1465,18.7581 -53.6101,31.1174 -81.6564,38.6078 -2.6537,1.1128 -5.65,2.1936 -9.3737,3.2102 -6.2707,1.0915 -12.584,2.033 -19.2077,2.8463 -23.552,3.8523 -45.6595,4.6975 -63.9147,3.6167 -0.6849,-0.042 -1.4447,-0.031 -2.1188,-0.086 -33.9102,0 -61.6462,-2.1722 -84.7274,-6.3775 -36.1359,-9.7697 -16.3825,-24.9753 -60.5547,-35.8364 -41.6897,-10.187 -41.2509,2.3113 -88.0554,-53.4817 -17.8486,-21.3156 -44.033,-61.2289 -44.033,-103.047 0,-61.3572 16.9605,-97.6001 23.1133,-115.2562 -17.1209,-11.1288 -17.26,-49.2764 -14.4886,-73.9841 1.1664,-9.7696 8.3358,-30.5502 16.2435,-48.7413 8.7745,-21.1765 15.9439,-42.7597 21.6474,-43.4337 10.6792,-1.4981 11.1179,5.0185 14.4885,6.3775 7.9293,-51.9943 30.6253,-109.6813 60.5014,-128.6643 3.574,-2.2685 7.0731,-8.6782 8.6568,-17.1316 0.7597,-4.1305 1.1128,-8.6997 0.7276,-13.5898 -1.6907,-21.2728 -16.6074,-47.6499 -64.0432,-60.298 -0.8881,-0.2354 -1.787,-0.4708 -2.6751,-0.7062 -25.8527,-6.8377 -46.0983,-11.8777 -59.902,-15.7834 -50.1967,-13.4828 -95.6529,-27.3936 -131.9708,-46.0341 -0.3103,-0.1498 -0.567,-0.2246 -0.8774,-0.3744 -41.0689,-20.3312 -53.8669,-36.6283 -60.3408,-43.1022 -6.4631,-6.4632 -11.3212,-8.6032 -33.7177,-25.9382 -5.0399,-3.039 -10.3367,-6.3027 -16.0295,-10.3155 -14.3922,-10.1869 -30.7428,-26.7301 -48.2597,-45.1887 -4.8366,-4.2266 -9.3737,-8.9136 -13.7824,-13.8894 -3.8308,-4.323 -7.2871,-8.5498 -10.6363,-13.0012 -122.9181,-191.3163 -188.9622,-510.3659 -188.9622,-558.5615 0,-81.453 -67.125,-265.9959 -84.7596,-364.8374 -18.8117,-105.4332 7.758,-393.9218 9.8125,-442.5348 0.031,-0.7597 0.064,-1.5729 0.085,-2.3541 0.2462,-16.372 -0.8988,-25.7991 0.7704,-29.8868 0.064,-13.2153 -0.3316,-25.7885 -1.7656,-34.0387 -6.7948,-38.2868 21.305,-114.3147 18.0413,-166.0415 -0.8026,-12.327 -0.043,-22.3749 1.8297,-30.9889 -0.032,-26.3022 24.4189,-79.5377 63.8935,-89.8958 0.6634,-0.6957 1.3482,-1.4019 2.0224,-2.0974 12.1345,-27.7361 45.8199,-60.1803 60.9934,-60.1803 0,-28.6455 51.8338,-63.4547 70.913,-48.7413 0.6955,0.4066 1.4552,0.7169 2.0866,1.252 25.1144,22.0005 -29.7371,77.5367 -63.262,126.8023 -33.6642,49.287 -30.6894,109.1463 -30.6894,109.1463 0,0 6.3882,24.4401 19.5607,-66.2476 3.7987,-28.913 26.6017,-58.65 42.214,-53.2141 14.9487,5.2754 28.378,46.2588 14.9594,83.1545 -4.5584,11.7921 -8.1111,45.7451 0.043,68.2378 8.1646,22.4712 9.8018,90.2918 -33.8675,128.3645 -2.7608,5.8962 -4.6333,9.8125 -4.6333,9.8125 -21.5939,59.1852 26.3877,232.1392 57.2055,329.7503 42.6312,120.1465 65.6161,179.9308 104.8447,346.197 12.0274,16.7038 90.5378,147.615 100.4787,205.3128 4.0556,23.5734 -6.6237,-47.5215 10.8397,-106.0645 -36.4464,-67.5958 -84.2031,-163.0775 -114.4751,-359.5086 -15.7407,-102.5012 -20.2243,-183.2803 -14.6599,-246.5316 0.2782,-2.1722 0.4066,-3.9378 0.6848,-5.9818 0.4066,-5.0185 0.9417,-10.1762 1.6265,-15.0663 5.5536,-56.7454 1.9047,-85.53 -2.5788,-107.1025 -0.8133,-2.718 -1.359,-5.7034 -2.0439,-8.828 -50.5711,-172.5902 -24.7719,-409.5126 31.9842,-570.7709 25.7671,-106.8348 60.8329,-154.3456 60.8329,-201.867 0,-29.0629 -18.3407,-105.5402 -21.8077,-197.8223 -8.4536,-103.1005 -0.4067,-159.0647 -0.4067,-159.0647 12.1024,-165.7312 96.038,-366.9563 123.9452,-441.8284 27.2331,-100.6286 55.7181,-193.542 63.5296,-248.051 0.535,-4.3445 1.3483,-8.2715 2.1723,-11.9418 5.9708,-49.6937 -13.7183,-165.6242 -71.1378,-227.1206 -4.0769,-5.5643 -6.5166,-10.0479 -7.7365,-13.8573 -7.8757,-13.8358 -6.7843,-41.1225 18.8652,-46.5584 0,0 168.4705,-11.5352 184.7674,3.3921 0,0 14.1141,-5.9603 30.1331,-6.9125 39.9238,-6.5274 54.9903,12.4876 49.8219,32.8508 0,0 -19.1433,79.5484 -31.3527,150.4185 4.3444,9.7697 5.971,18.5977 5.971,26.7409 0,19.7213 -5.971,45.7879 -5.971,45.7879 -4.6227,40.6837 23.4771,222.8724 37.0668,269.249 8.5713,29.3302 31.7915,140.3385 36.7674,229.6672 18.405,201.2144 -16.4148,405.0184 -26.5911,447.9813 -10.1763,42.9951 16.9712,125.5824 28.0999,261.8548 13.2472,90.9552 24.804,199.8232 29.2661,293.7104 0.717,6.078 6.0566,8.9029 11.4069,8.828 5.3503,0.076 10.6899,-2.75 11.3106,-8.614 4.537,-94.1012 16.0936,-202.9692 29.3517,-293.9244 11.1287,-136.2724 38.2868,-218.8597 28.0998,-261.8548 -10.1763,-42.9629 -44.996,-246.7669 -26.591,-447.9813 4.9757,-89.3287 28.1961,-200.337 36.778,-229.6672 13.5684,-46.3766 41.6681,-228.5653 37.0562,-269.249 0,0 -5.9709,-26.0666 -5.9709,-45.7879 0,-8.1432 1.6265,-16.9712 5.9709,-26.7409 -12.2093,-70.8701 -31.3528,-150.4185 -31.3528,-150.4185 -5.1684,-20.3632 9.9088,-39.3782 49.8221,-32.8508 16.0188,0.9522 30.1222,6.9125 30.1222,6.9125 16.3077,-14.9273 184.7783,-3.3921 184.7783,-3.3921 25.6494,5.4359 26.7409,32.7226 18.9936,46.5584 -1.359,3.8094 -3.7881,8.293 -7.865,13.8573 -57.4195,61.4964 -77.1087,177.4269 -71.1377,227.1206 0.8133,3.6703 1.6265,7.5973 2.1722,11.8135 7.8008,54.6373 36.2965,147.5507 63.5082,248.1365 27.9393,74.9149 111.8534,276.14 123.9345,441.8927 0.032,-0.022 8.0791,55.9427 -0.3104,158.9896 -3.5311,92.3357 -21.872,168.813 -21.872,197.8759 0,47.5214 35.0659,95.0322 60.8865,201.8456 56.7024,161.2797 82.5016,398.2021 31.9306,570.7923 -0.6849,3.1246 -1.2197,6.11 -1.9046,8.828 -4.6121,21.5725 -8.2824,50.3571 -2.718,107.1025 0.6848,4.8901 1.2306,10.0478 1.6372,15.0663 0.2676,2.044 0.4067,3.8096 0.6742,5.9818 5.5642,63.2513 1.0915,144.0304 -14.6599,246.5316 -30.272,196.4311 -78.0289,291.9128 -114.4644,359.5086 17.4633,58.543 6.7627,129.6379 10.829,106.0645 9.9409,-57.6978 88.4406,-188.609 100.4787,-205.3128 39.2284,-166.2662 62.213,-226.0505 104.8448,-346.197 30.8176,-97.6111 78.7883,-270.5651 57.2162,-329.7503 0,0 -1.8835,-3.9163 -4.6441,-9.8125 -43.6692,-38.0727 -42.0323,-105.8933 -33.8677,-128.3645 8.1543,-22.4927 4.6115,-56.4457 0,-68.2164 -13.3758,-36.9171 0.056,-77.9005 14.9911,-83.1759 15.6123,-5.4359 38.4263,24.3011 42.2251,53.2141 13.1727,90.6877 19.5497,66.2476 19.5497,66.2476 0,0 2.986,-59.8593 -30.6779,-109.1463 -33.5363,-49.2656 -88.3764,-104.8018 -63.2729,-126.8023 0.6416,-0.5351 1.3911,-0.8454 2.1397,-1.1878 19.0366,-14.7776 70.8592,20.0316 70.8592,48.6771 15.195,0 48.8701,32.4442 61.0792,60.1589 0.5885,0.7169 1.284,1.4231 1.9478,2.1188 39.4635,10.3581 63.9255,63.5936 63.9255,89.8958 1.8407,8.614 2.6006,18.6619 1.7868,30.9889 -3.2634,51.7268 24.8475,127.7547 18.0525,166.0415"
         style="fill:#f47030;fill-opacity:1;fill-rule:nonzero;stroke:none;stroke-width:1.07006"
         id="path63"
         inkscape:export-filename="/Users/nbennett/Desktop/path37.png"
         inkscape:export-xdpi="96"
         inkscape:export-ydpi="96" /></g></g></svg>
